<svg width="400" height="400" viewBox="0 0 400 400" fill="none" xmlns="http://www.w3.org/2000/svg">
  <!-- Colorful confetti pieces scattered across the canvas -->
  
  <!-- Purple squares -->
  <rect x="50" y="30" width="15" height="15" fill="#8b5cf6" transform="rotate(15 57.5 37.5)"/>
  <rect x="200" y="100" width="12" height="12" fill="#8b5cf6" transform="rotate(-20 206 106)"/>
  <rect x="340" y="200" width="18" height="18" fill="#8b5cf6" transform="rotate(45 349 209)"/>
  
  <!-- Pink circles -->
  <circle cx="120" cy="80" r="8" fill="#ec4899"/>
  <circle cx="280" cy="150" r="10" fill="#ec4899"/>
  <circle cx="90" cy="250" r="7" fill="#ec4899"/>
  <circle cx="320" cy="320" r="9" fill="#ec4899"/>
  
  <!-- Yellow triangles -->
  <path d="M180 50 L190 70 L170 70 Z" fill="#fbbf24"/>
  <path d="M350 100 L365 125 L335 125 Z" fill="#fbbf24"/>
  <path d="M60 180 L72 200 L48 200 Z" fill="#fbbf24"/>
  <path d="M250 280 L265 305 L235 305 Z" fill="#fbbf24"/>
  
  <!-- Green diamonds -->
  <path d="M150 150 L160 160 L150 170 L140 160 Z" fill="#10b981"/>
  <path d="M300 50 L312 62 L300 74 L288 62 Z" fill="#10b981"/>
  <path d="M200 320 L210 330 L200 340 L190 330 Z" fill="#10b981"/>
  
  <!-- Coral stars -->
  <path d="M240 180 L243 189 L252 189 L245 195 L248 204 L240 198 L232 204 L235 195 L228 189 L237 189 Z" fill="#fb7185"/>
  <path d="M100 320 L103 329 L112 329 L105 335 L108 344 L100 338 L92 344 L95 335 L88 329 L97 329 Z" fill="#fb7185"/>
  
  <!-- Blue ribbons (curved lines) -->
  <path d="M80 120 Q90 130 100 120" stroke="#3b82f6" stroke-width="3" stroke-linecap="round" fill="none"/>
  <path d="M260 240 Q270 250 280 240" stroke="#3b82f6" stroke-width="3" stroke-linecap="round" fill="none"/>
  
  <!-- Mint curved shapes -->
  <path d="M180 220 L185 230 L175 230 Z" fill="#6ee7b7" transform="rotate(30 180 225)"/>
  <path d="M320 150 L325 160 L315 160 Z" fill="#6ee7b7" transform="rotate(-45 320 155)"/>
  
  <!-- Additional scattered pieces for density -->
  <rect x="140" y="290" width="10" height="10" fill="#8b5cf6" transform="rotate(60 145 295)"/>
  <circle cx="220" cy="60" r="6" fill="#ec4899"/>
  <path d="M360 260 L368 275 L352 275 Z" fill="#fbbf24"/>
  <circle cx="30" cy="350" r="8" fill="#10b981"/>
  <rect x="380" y="380" width="14" height="14" fill="#fb7185" transform="rotate(25 387 387)"/>
</svg>
